<?xml version="1.0" encoding="utf-8"?>
<!-- Generator: Adobe Illustrator 26.3.1, SVG Export Plug-In . SVG Version: 6.00 Build 0)  -->
<svg version="1.1" id="Layer_1" xmlns="http://www.w3.org/2000/svg" xmlns:xlink="http://www.w3.org/1999/xlink" x="0px" y="0px"
	 viewBox="0 0 203 87" style="enable-background:new 0 0 203 87;" xml:space="preserve">
<style type="text/css">
	.st0{fill:#FFFFFF;stroke:#F6F6F6;stroke-miterlimit:10;}
	.st1{fill:#FCFCFC;stroke:#F6F6F6;stroke-miterlimit:10;}
</style>
<g>
	<path class="st0" d="M15.4,10.1v67.2h-10V10.1H15.4z"/>
	<path class="st1" d="M32.9,11c5.1-0.9,12.3-1.4,19.2-1.4c10.7,0,17.6,1.7,22.4,5.5c3.9,3,6.1,7.6,6.1,12.8
		c0,8.9-6.4,14.8-14.6,17.2v0.3c6,1.8,9.5,6.6,11.4,13.6c2.5,9.4,4.4,15.9,6,18.5H73c-1.3-1.9-3-7.7-5.2-16.1
		c-2.3-9.3-6.4-12.8-15.5-13.1h-9.4v29.1h-10V11z M42.9,41.7h10.2c10.7,0,17.5-5.1,17.5-12.8c0-8.7-7.2-12.5-17.8-12.6
		c-4.8,0-8.3,0.4-9.9,0.8V41.7z"/>
	<path class="st0" d="M94.7,11c5.1-0.9,12.3-1.4,19.2-1.4c10.7,0,17.6,1.7,22.4,5.5c3.9,3,6.1,7.6,6.1,12.8
		c0,8.9-6.4,14.8-14.6,17.2v0.3c6,1.8,9.5,6.6,11.4,13.6c2.5,9.4,4.4,15.9,6,18.5h-10.3c-1.3-1.9-3-7.7-5.2-16.1
		c-2.3-9.3-6.4-12.8-15.5-13.1h-9.4v29.1h-10V11z M104.7,41.7h10.2c10.7,0,17.5-5.1,17.5-12.8c0-8.7-7.2-12.5-17.8-12.6
		c-4.8,0-8.3,0.4-9.9,0.8V41.7z"/>
	<path class="st0" d="M156.4,10.1h10v59.9h33.1v7.3h-43.1V10.1z"/>
</g>
</svg>
