<?xml version="1.0" encoding="UTF-8"?><svg xmlns="http://www.w3.org/2000/svg" viewBox="0 0 570.38 130.82"><defs><style>.cls-1{fill:#231f20;font-family:SourceSerifVariable-Roman, 'Source Serif Variable';font-size:53.84px;font-variation-settings:'wght' 389;}.cls-2{fill:#345c67;stroke:#345c67;}.cls-2,.cls-3,.cls-4{stroke-miterlimit:10;stroke-width:3px;}.cls-5{letter-spacing:0em;}.cls-3{fill:#e19f3d;stroke:#e19f3d;}.cls-6{letter-spacing:0em;}.cls-7{letter-spacing:0em;}.cls-4{fill:#9e2b2b;stroke:#9e2b2b;}.cls-8{letter-spacing:0em;}.cls-9{letter-spacing:0em;}</style></defs><g id="Layer_4"><text class="cls-1" transform="translate(121.63 61.55) scale(.94 1)"><tspan x="0" y="0">Inf</tspan><tspan class="cls-9" x="71.55" y="0">r</tspan><tspan x="93.62" y="0">astr</tspan><tspan class="cls-7" x="184.28" y="0">u</tspan><tspan x="215.08" y="0">ctu</tspan><tspan class="cls-9" x="289.96" y="0">r</tspan><tspan x="312.04" y="0">e</tspan></text><text class="cls-1" transform="translate(122.14 112.78) scale(.94 1)"><tspan x="0" y="0">ri</tspan><tspan class="cls-5" x="38.6" y="0">s</tspan><tspan class="cls-6" x="61.37" y="0">k &amp; </tspan><tspan class="cls-9" x="154.62" y="0">r</tspan><tspan x="176.69" y="0">esilience </tspan><tspan class="cls-9" x="401.46" y="0">l</tspan><tspan class="cls-8" x="416.86" y="0">ab</tspan></text></g><g id="Layer_3"><line class="cls-3" x1="118.52" y1="82.07" x2="74.15" y2="96.65"/><line class="cls-4" x1="108.61" y1="104.65" x2="111.44" y2="32.61"/><rect class="cls-2" x="84.6" y="39.83" width="3.02" height="3.29"/><line class="cls-2" x1="30.06" y1="40.87" x2="30.06" y2="81.64"/><rect class="cls-2" x="28.55" y="40.15" width="3.02" height="3.29"/><rect class="cls-2" x="28.55" y="81.08" width="3.02" height="3.29"/><rect class="cls-2" x="84.6" y="81.08" width="3.02" height="3.29"/><polygon class="cls-3" points="83.77 27.98 83.77 23.81 87.09 21.73 90.41 23.81 90.41 27.98 87.09 30.06 83.77 27.98"/><polygon class="cls-3" points="49.51 63.34 52.83 61.26 56.15 63.34 56.15 67.51 52.83 69.59 49.51 67.51 49.51 63.34"/><polygon class="cls-3" points="70.21 93.83 73.53 91.74 76.85 93.83 76.85 97.99 73.53 100.08 70.21 97.99 70.21 93.83"/><polygon class="cls-3" points="116.45 80.85 119.77 78.76 123.09 80.85 123.09 85.01 119.77 87.1 116.45 85.01 116.45 80.85"/><line class="cls-3" x1="87.08" y1="25.9" x2="119.77" y2="82.93"/><line class="cls-3" y1="1.5" x2=".15" y2="1.5"/><line class="cls-3" x1="87.74" y1="27.15" x2="51.17" y2="65.99"/><line class="cls-4" x1="43.44" y1="83.88" x2="59.97" y2="115.53"/><line class="cls-4" x1="109.31" y1="104.51" x2="59.88" y2="115.03"/><ellipse class="cls-4" cx="59.34" cy="114.41" rx="2.58" ry="2.81"/><ellipse class="cls-4" cx="111.44" cy="33.33" rx="2.58" ry="2.81"/><ellipse class="cls-4" cx="108.61" cy="104.51" rx="2.58" ry="2.81"/><line class="cls-2" x1="86.11" y1="41.47" x2="28.71" y2="41.47"/><line class="cls-2" x1="28.71" y1="82.93" x2="87.09" y2="82.93"/><ellipse class="cls-4" cx="43.42" cy="83.88" rx="2.58" ry="2.81"/><line class="cls-4" x1="112.22" y1="32.75" x2="42.98" y2="84.77"/><line class="cls-2" x1="86.11" y1="82.93" x2="86.11" y2="43.12"/><line class="cls-3" x1="52.83" y1="66.23" x2="74.98" y2="97"/></g></svg>