<?xml version="1.0" encoding="iso-8859-1"?>
<!-- Generator: Adobe Illustrator 19.0.0, SVG Export Plug-In . SVG Version: 6.00 Build 0)  -->
<svg version="1.1" id="Layer_1" xmlns="http://www.w3.org/2000/svg" xmlns:xlink="http://www.w3.org/1999/xlink" x="0px" y="0px"
	 viewBox="0 0 512 512" style="enable-background:new 0 0 512 512;" xml:space="preserve">
<path style="fill:#A2B3BF;" d="M500.799,246.057l-44.834-77.733c-2.919-5.062-8.317-8.179-14.16-8.179h-85.747
	c-9.027,0-16.346,7.319-16.346,16.346v144.199c0,9.027,7.319,16.346,16.346,16.346s16.346-7.319,16.346-16.346v-0.124l97.896-0.746
	c0.068,8.969,7.354,16.221,16.339,16.221c9.027,0,16.346-7.319,16.346-16.346v-65.47
	C502.985,251.357,502.231,248.54,500.799,246.057z"/>
<path style="fill:#C9D2D9;" d="M421.493,160.145h-65.435c-9.027,0-16.346,7.319-16.346,16.346v144.199
	c0,9.027,7.319,16.346,16.346,16.346s16.346-7.319,16.346-16.346v-0.124l48.873-0.746L421.493,160.145z"/>
<path style="fill:#BDDEFF;" d="M500.799,246.057l-44.834-77.733c-2.919-5.062-8.317-8.179-14.16-8.179h-85.747
	c-9.027,0-16.346,7.319-16.346,16.346v71.602h162.075C501.505,247.395,501.177,246.714,500.799,246.057z"/>
<path style="fill:#D7EBFF;" d="M421.349,160.145h-65.29c-9.027,0-16.346,7.319-16.346,16.346v71.602h81.636V160.145z"/>
<path style="fill:#128CB3;" d="M356.059,122.027H28.773c-9.027,0-16.346,7.319-16.346,16.346v192.302
	c0,9.027,7.319,16.346,16.346,16.346s16.346-7.319,16.346-16.346h294.594c0,9.027,7.319,16.346,16.346,16.346
	s16.346-7.319,16.346-16.346V138.372C372.404,129.345,365.086,122.027,356.059,122.027z"/>
<path style="fill:#34B2D9;" d="M192.415,122.027H28.773c-9.027,0-16.346,7.319-16.346,16.346v192.302
	c0,9.027,7.319,16.346,16.346,16.346s16.346-7.319,16.346-16.346h147.297V122.027z"/>
<path style="fill:#7A4126;" d="M495.654,347.021H16.346C7.319,347.021,0,339.703,0,330.675s7.319-16.346,16.346-16.346h479.309
	c9.027,0,16.346,7.319,16.346,16.346S504.681,347.021,495.654,347.021z"/>
<path style="fill:#995D3D;" d="M192.415,347.021H16.346C7.319,347.021,0,339.703,0,330.675s7.319-16.346,16.346-16.346h176.069
	V347.021z"/>
<path style="fill:#212A2D;" d="M120.707,389.973c-29.73,0-53.917-24.187-53.917-53.917c0-29.73,24.187-53.917,53.917-53.917
	s53.917,24.187,53.917,53.917C174.623,365.786,150.436,389.973,120.707,389.973z"/>
<path style="fill:#2E373A;" d="M120.707,389.973c-29.73,0-53.917-24.187-53.917-53.917c0-29.73,24.187-53.917,53.917-53.917V389.973
	z"/>
<circle style="fill:#A2B3BF;" cx="120.708" cy="336.057" r="21.727"/>
<path style="fill:#C9D2D9;" d="M120.705,357.784c-12,0-21.727-9.728-21.727-21.727c0-12,9.728-21.727,21.727-21.727
	C120.705,314.331,120.705,357.784,120.705,357.784z"/>
<path style="fill:#212A2D;" d="M421.493,389.973c-29.73,0-53.917-24.187-53.917-53.917c0-29.73,24.187-53.917,53.917-53.917
	c29.73,0,53.917,24.187,53.917,53.917C475.41,365.786,451.223,389.973,421.493,389.973z"/>
<path style="fill:#2E373A;" d="M421.493,389.973c-29.73,0-53.917-24.187-53.917-53.917c0-29.73,24.187-53.917,53.917-53.917V389.973
	z"/>
<circle style="fill:#A2B3BF;" cx="421.491" cy="336.057" r="21.727"/>
<path style="fill:#C9D2D9;" d="M421.493,357.784c-12,0-21.727-9.728-21.727-21.727c0-12,9.728-21.727,21.727-21.727V357.784z"/>
<g>
</g>
<g>
</g>
<g>
</g>
<g>
</g>
<g>
</g>
<g>
</g>
<g>
</g>
<g>
</g>
<g>
</g>
<g>
</g>
<g>
</g>
<g>
</g>
<g>
</g>
<g>
</g>
<g>
</g>
</svg>
